<?xml version="1.0" encoding="UTF-8" standalone="no"?><svg xmlns="http://www.w3.org/2000/svg" xmlns:xlink="http://www.w3.org/1999/xlink" clip-rule="evenodd" stroke-miterlimit="4.00" viewBox="0 0 226 225"><desc>SVG generated by Keynote</desc><defs><linearGradient id="gradSh1.38" x1="0.0" y1="0.0" x2="100.0" y2="0.0" gradientUnits="userSpaceOnUse" gradientTransform="matrix(-2.30, -1.61, -1.61, 2.30, 228.6, 195.1)"><stop offset="0.00000" stop-color="#01F2FE"></stop><stop offset="0.00367" stop-color="#02F2FE"></stop><stop offset="0.00953" stop-color="#02F1FE"></stop><stop offset="0.02933" stop-color="#04F0FE"></stop><stop offset="0.03812" stop-color="#04EFFE"></stop><stop offset="0.08065" stop-color="#08EDFE"></stop><stop offset="0.08138" stop-color="#08ECFE"></stop><stop offset="0.18328" stop-color="#10E5FE"></stop><stop offset="0.19721" stop-color="#11E4FE"></stop><stop offset="0.38930" stop-color="#20D7FE"></stop><stop offset="0.39809" stop-color="#20D6FE"></stop><stop offset="0.80132" stop-color="#40BAFE"></stop><stop offset="0.81525" stop-color="#41BAFE"></stop><stop offset="1.00000" stop-color="#4FADFE"></stop></linearGradient></defs><g transform="matrix(1.00, 0.00, -0.00, -1.00, 0.0, 225.0)"><g><clipPath id="clip-192"><path d="M 1.0 0.1 L 226.0 0.1 L 226.0 224.8 L 1.0 224.8 Z M 1.0 0.1 "></path></clipPath><g clip-path="url(#clip-192)"><image xlink:href="1891CDFAF90E17D3AB9ADBA94A1FD417.png" width="223.00" height="223.00" transform="matrix(1.00, 0.00, -0.00, -1.00, 2.0, 223.8)" opacity="0.50"></image></g></g><g><clipPath id="clip-193"><path d="M 184.2 185.1 C 223.2 146.1 223.2 82.9 184.2 43.9 C 145.1 4.9 81.8 4.9 42.8 43.9 C 3.7 82.9 3.7 146.1 42.8 185.1 C 81.8 224.1 145.1 224.1 184.2 185.1 Z M 184.2 185.1 "></path></clipPath><g clip-path="url(#clip-193)"><g><clipPath id="clip-194"><path d="M 1.0 0.1 L 226.0 0.1 L 226.0 224.8 L 1.0 224.8 Z M 1.0 0.1 "></path></clipPath><g clip-path="url(#clip-194)"><path d="M 1.0 0.1 L 226.0 0.1 L 226.0 224.8 L 1.0 224.8 Z M 1.0 0.1 " fill="url(#gradSh1.38)"></path></g></g></g></g><g><clipPath id="clip-195"><path d="M 1.0 0.1 L 226.0 0.1 L 226.0 224.8 L 1.0 224.8 Z M 1.0 0.1 "></path></clipPath><g clip-path="url(#clip-195)"><path d="M 170.7 29.2 C 209.8 68.2 209.8 131.5 170.7 170.5 C 131.7 209.5 68.3 209.5 29.3 170.5 C -9.8 131.5 -9.8 68.2 29.3 29.2 C 68.3 -9.7 131.7 -9.7 170.7 29.2 Z M 170.7 29.2 " fill="none" stroke="#FEFFFF" stroke-width="15.00" transform="matrix(1.00, 0.00, 0.00, -1.00, 13.5, 214.3)"></path></g></g><g><clipPath id="clip-196"><path d="M 29.6 72.0 L 198.3 72.0 L 198.3 157.0 L 29.6 157.0 Z M 29.6 72.0 "></path></clipPath><g clip-path="url(#clip-196)"><text xml:space="preserve" font-family="Helvetica-Bold" font-weight="bold" font-size="50.0" fill="#FEFFFF" transform="matrix(1.00, 0.00, -0.00, -1.00, 43.0, 96.0)">L</text><text xml:space="preserve" font-family="Helvetica-Bold" font-weight="bold" font-size="50.0" fill="#FEFFFF" transform="matrix(1.00, 0.00, -0.00, -1.00, 73.5, 96.0)">i</text><text xml:space="preserve" font-family="Helvetica-Bold" font-weight="bold" font-size="50.0" fill="#FEFFFF" transform="matrix(1.00, 0.00, -0.00, -1.00, 87.4, 96.0)">C</text><text xml:space="preserve" font-family="Helvetica-Bold" font-weight="bold" font-size="50.0" fill="#FEFFFF" transform="matrix(1.00, 0.00, -0.00, -1.00, 123.5, 96.0)">O</text><text xml:space="preserve" font-family="Helvetica-Bold" font-weight="bold" font-size="40.0" fill="#FEFFFF" transform="matrix(1.00, 0.00, -0.00, -1.00, 162.4, 96.0)">3</text></g></g></g></svg>