<?xml version="1.0" encoding="UTF-8" standalone="no"?><svg xmlns="http://www.w3.org/2000/svg" xmlns:xlink="http://www.w3.org/1999/xlink" clip-rule="evenodd" stroke-miterlimit="4.00" viewBox="0 0 226 225"><desc>SVG generated by Keynote</desc><defs><linearGradient id="gradSh1.39" x1="0.0" y1="0.0" x2="100.0" y2="0.0" gradientUnits="userSpaceOnUse" gradientTransform="matrix(-2.30, -1.61, -1.61, 2.30, 228.6, 195.2)"><stop offset="0.00000" stop-color="#32DDC0"></stop><stop offset="0.00953" stop-color="#32DCC0"></stop><stop offset="0.71628" stop-color="#36C77F"></stop><stop offset="0.72801" stop-color="#36C77E"></stop><stop offset="1.00000" stop-color="#37BE66"></stop></linearGradient></defs><g transform="matrix(1.00, 0.00, -0.00, -1.00, 0.0, 225.0)"><g><clipPath id="clip-197"><path d="M 1.0 0.2 L 226.0 0.2 L 226.0 224.9 L 1.0 224.9 Z M 1.0 0.2 "></path></clipPath><g clip-path="url(#clip-197)"><image xlink:href="../../DE09804C-A9CC-496C-B63C-315865D3D039/assets/1891CDFAF90E17D3AB9ADBA94A1FD417.png" width="223.00" height="223.00" transform="matrix(1.00, 0.00, -0.00, -1.00, 2.0, 223.9)" opacity="0.50"></image></g></g><g><clipPath id="clip-198"><path d="M 184.2 185.1 C 223.2 146.1 223.2 82.9 184.2 43.9 C 145.1 4.9 81.8 4.9 42.8 43.9 C 3.7 82.9 3.7 146.1 42.8 185.1 C 81.8 224.1 145.1 224.1 184.2 185.1 Z M 184.2 185.1 "></path></clipPath><g clip-path="url(#clip-198)"><g><clipPath id="clip-199"><path d="M 1.0 0.2 L 226.0 0.2 L 226.0 224.9 L 1.0 224.9 Z M 1.0 0.2 "></path></clipPath><g clip-path="url(#clip-199)"><path d="M 1.0 0.2 L 226.0 0.2 L 226.0 224.9 L 1.0 224.9 Z M 1.0 0.2 " fill="url(#gradSh1.39)"></path></g></g></g></g><g><clipPath id="clip-200"><path d="M 1.0 0.2 L 226.0 0.2 L 226.0 224.9 L 1.0 224.9 Z M 1.0 0.2 "></path></clipPath><g clip-path="url(#clip-200)"><path d="M 170.7 29.2 C 209.8 68.2 209.8 131.5 170.7 170.5 C 131.7 209.5 68.3 209.5 29.3 170.5 C -9.8 131.5 -9.8 68.2 29.3 29.2 C 68.3 -9.7 131.7 -9.7 170.7 29.2 Z M 170.7 29.2 " fill="none" stroke="#FEFFFF" stroke-width="15.00" transform="matrix(1.00, 0.00, 0.00, -1.00, 13.5, 214.4)"></path></g></g><g><clipPath id="clip-201"><path d="M 33.8 72.0 L 194.1 72.0 L 194.1 157.0 L 33.8 157.0 Z M 33.8 72.0 "></path></clipPath><g clip-path="url(#clip-201)"><text xml:space="preserve" font-family="Helvetica-Bold" font-weight="bold" font-size="50.0" fill="#FEFFFF" transform="matrix(1.00, 0.00, -0.00, -1.00, 47.0, 96.0)">M</text><text xml:space="preserve" font-family="Helvetica-Bold" font-weight="bold" font-size="50.0" fill="#FEFFFF" transform="matrix(1.00, 0.00, -0.00, -1.00, 88.7, 96.0)">n</text><text xml:space="preserve" font-family="Helvetica-Bold" font-weight="bold" font-size="50.0" fill="#FEFFFF" transform="matrix(1.00, 0.00, -0.00, -1.00, 119.2, 96.0)">O</text><text xml:space="preserve" font-family="Helvetica-Bold" font-weight="bold" font-size="40.0" fill="#FEFFFF" transform="matrix(1.00, 0.00, -0.00, -1.00, 158.1, 96.0)">2</text></g></g></g></svg>