<?xml version="1.0" encoding="UTF-8" standalone="no"?><svg xmlns="http://www.w3.org/2000/svg" xmlns:xlink="http://www.w3.org/1999/xlink" clip-rule="evenodd" stroke-miterlimit="4.00" viewBox="0 0 390 390"><desc>SVG generated by Keynote</desc><defs><linearGradient id="gradSh1.44" x1="0.0" y1="0.0" x2="100.0" y2="0.0" gradientUnits="userSpaceOnUse" gradientTransform="matrix(-4.17, -2.92, -2.92, 4.17, 403.6, 343.1)"><stop offset="0.00000" stop-color="#FACA25"></stop><stop offset="0.00147" stop-color="#FAC925"></stop><stop offset="0.74194" stop-color="#F17E1F"></stop><stop offset="0.74707" stop-color="#F17D1F"></stop><stop offset="1.00000" stop-color="#EE641D"></stop></linearGradient></defs><g transform="matrix(1.00, 0.00, -0.00, -1.00, 0.0, 390.0)"><g><clipPath id="clip-232"><path d="M 0.5 0.8 L 389.5 0.8 L 389.5 389.2 L 0.5 389.2 Z M 0.5 0.8 "></path></clipPath><g clip-path="url(#clip-232)"><image xlink:href="../../4396C922-84FA-4782-AACC-B363F30BB3C2/assets/CC61EC1961A11A726DA0052F1E84C82F.png" width="387.00" height="386.00" transform="matrix(1.00, 0.00, -0.00, -1.00, 1.5, 388.2)" opacity="0.50"></image></g></g><g><clipPath id="clip-233"><path d="M 323.7 325.5 C 394.8 254.5 394.8 139.5 323.7 68.5 C 252.6 -2.5 137.4 -2.5 66.3 68.5 C -4.8 139.5 -4.8 254.5 66.3 325.5 C 137.4 396.5 252.6 396.5 323.7 325.5 Z M 323.7 325.5 "></path></clipPath><g clip-path="url(#clip-233)"><g><clipPath id="clip-234"><path d="M 0.5 0.8 L 389.5 0.8 L 389.5 389.2 L 0.5 389.2 Z M 0.5 0.8 "></path></clipPath><g clip-path="url(#clip-234)"><path d="M 0.5 0.8 L 389.5 0.8 L 389.5 389.2 L 0.5 389.2 Z M 0.5 0.8 " fill="url(#gradSh1.44)"></path></g></g></g></g><g><clipPath id="clip-235"><path d="M 0.5 0.8 L 389.5 0.8 L 389.5 389.2 L 0.5 389.2 Z M 0.5 0.8 "></path></clipPath><g clip-path="url(#clip-235)"><path d="M 310.7 53.2 C 381.8 124.2 381.8 239.3 310.7 310.2 C 239.6 381.2 124.4 381.2 53.3 310.2 C -17.8 239.3 -17.8 124.2 53.3 53.2 C 124.4 -17.7 239.6 -17.7 310.7 53.2 Z M 310.7 53.2 " fill="none" stroke="#FEFFFF" stroke-width="15.00" transform="matrix(1.00, 0.00, 0.00, -1.00, 13.0, 378.7)"></path></g></g><g><clipPath id="clip-236"><path d="M 74.5 86.1 L 315.5 86.1 L 315.5 327.1 L 74.5 327.1 Z M 74.5 86.1 "></path></clipPath><g clip-path="url(#clip-236)"><image xlink:href="../../4396C922-84FA-4782-AACC-B363F30BB3C2/assets/863EBCD23F8027D9240C0B58A02D6C7A.png" width="200.00" height="200.00" transform="matrix(1.20, 0.00, -0.00, -1.21, 75.0, 327.0)"></image></g></g></g></svg>