<?xml version="1.0" encoding="UTF-8" standalone="no"?><svg xmlns="http://www.w3.org/2000/svg" xmlns:xlink="http://www.w3.org/1999/xlink" clip-rule="evenodd" stroke-miterlimit="4.00" viewBox="0 0 286 286"><desc>SVG generated by Keynote</desc><defs><linearGradient id="gradSh1.40" x1="0.0" y1="0.0" x2="100.0" y2="0.0" gradientUnits="userSpaceOnUse" gradientTransform="matrix(-2.99, -2.09, -2.09, 2.99, 292.2, 249.8)"><stop offset="0.00000" stop-color="#FACA25"></stop><stop offset="0.00147" stop-color="#FAC925"></stop><stop offset="0.74194" stop-color="#F17E1F"></stop><stop offset="0.74707" stop-color="#F17D1F"></stop><stop offset="1.00000" stop-color="#EE641D"></stop></linearGradient></defs><g transform="matrix(1.00, 0.00, -0.00, -1.00, 0.0, 286.0)"><g><clipPath id="clip-202"><path d="M 0.3 0.9 L 285.3 0.9 L 285.3 285.6 L 0.3 285.6 Z M 0.3 0.9 "></path></clipPath><g clip-path="url(#clip-202)"><image xlink:href="../../B18A4526-1793-4292-A0CF-6838D25D6129/assets/000FB67F908A2832148C7F408F64FBB0.png" width="283.00" height="283.00" transform="matrix(1.00, 0.00, -0.00, -1.00, 1.3, 284.6)" opacity="0.50"></image></g></g><g><clipPath id="clip-203"><path d="M 234.7 237.0 C 285.5 186.3 285.5 104.2 234.7 53.5 C 184.0 2.8 101.6 2.8 50.9 53.5 C 0.1 104.2 0.1 186.3 50.9 237.0 C 101.6 287.7 184.0 287.7 234.7 237.0 Z M 234.7 237.0 "></path></clipPath><g clip-path="url(#clip-203)"><g><clipPath id="clip-204"><path d="M 0.3 0.9 L 285.3 0.9 L 285.3 285.6 L 0.3 285.6 Z M 0.3 0.9 "></path></clipPath><g clip-path="url(#clip-204)"><path d="M 0.3 0.9 L 285.3 0.9 L 285.3 285.6 L 0.3 285.6 Z M 0.3 0.9 " fill="url(#gradSh1.40)"></path></g></g></g></g><g><clipPath id="clip-205"><path d="M 0.3 0.9 L 285.3 0.9 L 285.3 285.6 L 0.3 285.6 Z M 0.3 0.9 "></path></clipPath><g clip-path="url(#clip-205)"><path d="M 221.9 38.0 C 272.7 88.7 272.7 170.9 221.9 221.6 C 171.2 272.3 88.8 272.3 38.1 221.6 C -12.7 170.9 -12.7 88.7 38.1 38.0 C 88.8 -12.7 171.2 -12.7 221.9 38.0 Z M 221.9 38.0 " fill="none" stroke="#FEFFFF" stroke-width="15.00" transform="matrix(1.00, 0.00, 0.00, -1.00, 12.8, 275.1)"></path></g></g><g><clipPath id="clip-206"><path d="M 29.8 102.8 L 256.8 102.8 L 256.8 187.8 L 29.8 187.8 Z M 29.8 102.8 "></path></clipPath><g clip-path="url(#clip-206)"><text xml:space="preserve" font-family="Helvetica-Bold" font-weight="bold" font-size="50.0" fill="#FEFFFF" transform="matrix(1.00, 0.00, -0.00, -1.00, 43.0, 127.0)">L</text><text xml:space="preserve" font-family="Helvetica-Bold" font-weight="bold" font-size="50.0" fill="#FEFFFF" transform="matrix(1.00, 0.00, -0.00, -1.00, 73.5, 127.0)">i</text><text xml:space="preserve" font-family="Helvetica-Bold" font-weight="bold" font-size="50.0" fill="#FEFFFF" transform="matrix(1.00, 0.00, -0.00, -1.00, 87.4, 127.0)">M</text><text xml:space="preserve" font-family="Helvetica-Bold" font-weight="bold" font-size="50.0" fill="#FEFFFF" transform="matrix(1.00, 0.00, -0.00, -1.00, 129.1, 127.0)">n</text><text xml:space="preserve" font-family="Helvetica-Bold" font-weight="bold" font-size="40.0" fill="#FEFFFF" transform="matrix(1.00, 0.00, -0.00, -1.00, 159.6, 127.0)">2</text><text xml:space="preserve" font-family="Helvetica-Bold" font-weight="bold" font-size="50.0" fill="#FEFFFF" transform="matrix(1.00, 0.00, -0.00, -1.00, 181.9, 127.0)">O</text><text xml:space="preserve" font-family="Helvetica-Bold" font-weight="bold" font-size="40.0" fill="#FEFFFF" transform="matrix(1.00, 0.00, -0.00, -1.00, 220.8, 127.0)">4</text></g></g></g></svg>