<?xml version="1.0" encoding="UTF-8" standalone="no"?><svg xmlns="http://www.w3.org/2000/svg" xmlns:xlink="http://www.w3.org/1999/xlink" clip-rule="evenodd" stroke-miterlimit="4.00" viewBox="0 0 1094 51"><desc>SVG generated by Keynote</desc><defs></defs><g transform="matrix(1.00, 0.00, -0.00, -1.00, 0.0, 51.0)"><text xml:space="preserve" font-family="Helvetica-Light" font-size="50.0" fill="#3CBEF6" transform="matrix(1.00, 0.00, -0.00, -1.00, 0.0, 13.0)">m</text><text xml:space="preserve" font-family="Helvetica-Light" font-size="50.0" fill="#3CBEF6" transform="matrix(1.00, 0.00, -0.00, -1.00, 41.7, 13.0)">o</text><text xml:space="preserve" font-family="Helvetica-Light" font-size="50.0" fill="#3CBEF6" transform="matrix(1.00, 0.00, -0.00, -1.00, 69.5, 13.0)">s</text><text xml:space="preserve" font-family="Helvetica-Light" font-size="50.0" fill="#3CBEF6" transform="matrix(1.00, 0.00, -0.00, -1.00, 94.5, 13.0)">t</text><text xml:space="preserve" font-family="Helvetica-Light" font-size="50.0" fill="#3CBEF6" transform="matrix(1.00, 0.00, -0.00, -1.00, 108.4, 13.0)"> </text><text xml:space="preserve" font-family="Helvetica-Light" font-size="50.0" fill="#3CBEF6" transform="matrix(1.00, 0.00, -0.00, -1.00, 141.8, 13.0)">p</text><text xml:space="preserve" font-family="Helvetica-Light" font-size="50.0" fill="#3CBEF6" transform="matrix(1.00, 0.00, -0.00, -1.00, 172.4, 13.0)">r</text><text xml:space="preserve" font-family="Helvetica-Light" font-size="50.0" fill="#3CBEF6" transform="matrix(1.00, 0.00, -0.00, -1.00, 188.1, 13.0)">o</text><text xml:space="preserve" font-family="Helvetica-Light" font-size="50.0" fill="#3CBEF6" transform="matrix(1.00, 0.00, -0.00, -1.00, 215.9, 13.0)">m</text><text xml:space="preserve" font-family="Helvetica-Light" font-size="50.0" fill="#3CBEF6" transform="matrix(1.00, 0.00, -0.00, -1.00, 257.6, 13.0)">i</text><text xml:space="preserve" font-family="Helvetica-Light" font-size="50.0" fill="#3CBEF6" transform="matrix(1.00, 0.00, -0.00, -1.00, 268.7, 13.0)">s</text><text xml:space="preserve" font-family="Helvetica-Light" font-size="50.0" fill="#3CBEF6" transform="matrix(1.00, 0.00, -0.00, -1.00, 293.7, 13.0)">i</text><text xml:space="preserve" font-family="Helvetica-Light" font-size="50.0" fill="#3CBEF6" transform="matrix(1.00, 0.00, -0.00, -1.00, 304.8, 13.0)">n</text><text xml:space="preserve" font-family="Helvetica-Light" font-size="50.0" fill="#3CBEF6" transform="matrix(1.00, 0.00, -0.00, -1.00, 332.6, 13.0)">g</text><text xml:space="preserve" font-family="Helvetica-Light" font-size="50.0" fill="#3CBEF6" transform="matrix(1.00, 0.00, -0.00, -1.00, 363.1, 13.0)"> </text><text xml:space="preserve" font-family="Helvetica-Light" font-size="50.0" fill="#3CBEF6" transform="matrix(1.00, 0.00, -0.00, -1.00, 396.6, 13.0)">c</text><text xml:space="preserve" font-family="Helvetica-Light" font-size="50.0" fill="#3CBEF6" transform="matrix(1.00, 0.00, -0.00, -1.00, 424.4, 13.0)">a</text><text xml:space="preserve" font-family="Helvetica-Light" font-size="50.0" fill="#3CBEF6" transform="matrix(1.00, 0.00, -0.00, -1.00, 452.2, 13.0)">t</text><text xml:space="preserve" font-family="Helvetica-Light" font-size="50.0" fill="#3CBEF6" transform="matrix(1.00, 0.00, -0.00, -1.00, 466.1, 13.0)">h</text><text xml:space="preserve" font-family="Helvetica-Light" font-size="50.0" fill="#3CBEF6" transform="matrix(1.00, 0.00, -0.00, -1.00, 493.9, 13.0)">o</text><text xml:space="preserve" font-family="Helvetica-Light" font-size="50.0" fill="#3CBEF6" transform="matrix(1.00, 0.00, -0.00, -1.00, 521.7, 13.0)">d</text><text xml:space="preserve" font-family="Helvetica-Light" font-size="50.0" fill="#3CBEF6" transform="matrix(1.00, 0.00, -0.00, -1.00, 552.3, 13.0)">e</text><text xml:space="preserve" font-family="Helvetica-Light" font-size="50.0" fill="#3CBEF6" transform="matrix(1.00, 0.00, -0.00, -1.00, 580.1, 13.0)"> </text><text xml:space="preserve" font-family="Helvetica-Light" font-size="50.0" fill="#3CBEF6" transform="matrix(1.00, 0.00, -0.00, -1.00, 613.6, 13.0)">m</text><text xml:space="preserve" font-family="Helvetica-Light" font-size="50.0" fill="#3CBEF6" transform="matrix(1.00, 0.00, -0.00, -1.00, 655.2, 13.0)">a</text><text xml:space="preserve" font-family="Helvetica-Light" font-size="50.0" fill="#3CBEF6" transform="matrix(1.00, 0.00, -0.00, -1.00, 683.0, 13.0)">t</text><text xml:space="preserve" font-family="Helvetica-Light" font-size="50.0" fill="#3CBEF6" transform="matrix(1.00, 0.00, -0.00, -1.00, 696.9, 13.0)">e</text><text xml:space="preserve" font-family="Helvetica-Light" font-size="50.0" fill="#3CBEF6" transform="matrix(1.00, 0.00, -0.00, -1.00, 724.7, 13.0)">r</text><text xml:space="preserve" font-family="Helvetica-Light" font-size="50.0" fill="#3CBEF6" transform="matrix(1.00, 0.00, -0.00, -1.00, 741.4, 13.0)">i</text><text xml:space="preserve" font-family="Helvetica-Light" font-size="50.0" fill="#3CBEF6" transform="matrix(1.00, 0.00, -0.00, -1.00, 752.5, 13.0)">a</text><text xml:space="preserve" font-family="Helvetica-Light" font-size="50.0" fill="#3CBEF6" transform="matrix(1.00, 0.00, -0.00, -1.00, 780.3, 13.0)">l</text><text xml:space="preserve" font-family="Helvetica-Light" font-size="50.0" fill="#3CBEF6" transform="matrix(1.00, 0.00, -0.00, -1.00, 791.4, 13.0)">s</text><text xml:space="preserve" font-family="Helvetica-Light" font-size="50.0" fill="#3CBEF6" transform="matrix(1.00, 0.00, -0.00, -1.00, 816.4, 13.0)"> </text><text xml:space="preserve" font-family="Helvetica-Light" font-size="50.0" fill="#3CBEF6" transform="matrix(1.00, 0.00, -0.00, -1.00, 849.9, 13.0)">f</text><text xml:space="preserve" font-family="Helvetica-Light" font-size="50.0" fill="#3CBEF6" transform="matrix(1.00, 0.00, -0.00, -1.00, 863.8, 13.0)">o</text><text xml:space="preserve" font-family="Helvetica-Light" font-size="50.0" fill="#3CBEF6" transform="matrix(1.00, 0.00, -0.00, -1.00, 891.6, 13.0)">r</text><text xml:space="preserve" font-family="Helvetica-Light" font-size="50.0" fill="#3CBEF6" transform="matrix(1.00, 0.00, -0.00, -1.00, 908.2, 13.0)"> </text><text xml:space="preserve" font-family="Helvetica-Light" font-size="50.0" fill="#3CBEF6" transform="matrix(1.00, 0.00, -0.00, -1.00, 941.7, 13.0)">A</text><text xml:space="preserve" font-family="Helvetica-Light" font-size="50.0" fill="#3CBEF6" transform="matrix(1.00, 0.00, -0.00, -1.00, 975.1, 13.0)">R</text><text xml:space="preserve" font-family="Helvetica-Light" font-size="50.0" fill="#3CBEF6" transform="matrix(1.00, 0.00, -0.00, -1.00, 1008.4, 13.0)">L</text><text xml:space="preserve" font-family="Helvetica-Light" font-size="50.0" fill="#3CBEF6" transform="matrix(1.00, 0.00, -0.00, -1.00, 1036.2, 13.0)">B</text><text xml:space="preserve" font-family="Helvetica-Light" font-size="50.0" fill="#3CBEF6" transform="matrix(1.00, 0.00, -0.00, -1.00, 1069.6, 13.0)">s</text></g></svg>