<?xml version="1.0" encoding="UTF-8" standalone="no"?><svg xmlns="http://www.w3.org/2000/svg" xmlns:xlink="http://www.w3.org/1999/xlink" clip-rule="evenodd" stroke-miterlimit="4.00" viewBox="0 0 1215 146"><desc>SVG generated by Keynote</desc><defs></defs><g transform="matrix(1.00, 0.00, -0.00, -1.00, 0.0, 146.0)"><text xml:space="preserve" font-family="Times-Bold" font-weight="bold" font-size="200.0" fill="#FEFFFF" transform="matrix(1.00, 0.00, -0.00, -1.00, -3.0, 6.0)">T</text><text xml:space="preserve" font-family="Times-Bold" font-weight="bold" font-size="200.0" fill="#FEFFFF" transform="matrix(1.00, 0.00, -0.00, -1.00, 130.4, 6.0)">H</text><text xml:space="preserve" font-family="Times-Bold" font-weight="bold" font-size="200.0" fill="#FEFFFF" transform="matrix(1.00, 0.00, -0.00, -1.00, 285.9, 6.0)">A</text><text xml:space="preserve" font-family="Times-Bold" font-weight="bold" font-size="200.0" fill="#FEFFFF" transform="matrix(1.00, 0.00, -0.00, -1.00, 430.4, 6.0)">N</text><text xml:space="preserve" font-family="Times-Bold" font-weight="bold" font-size="200.0" fill="#FEFFFF" transform="matrix(1.00, 0.00, -0.00, -1.00, 574.9, 6.0)">K</text><text xml:space="preserve" font-family="Times-Bold" font-weight="bold" font-size="200.0" fill="#FEFFFF" transform="matrix(1.00, 0.00, -0.00, -1.00, 730.4, 6.0)"> </text><text xml:space="preserve" font-family="Times-Bold" font-weight="bold" font-size="200.0" fill="#FEFFFF" transform="matrix(1.00, 0.00, -0.00, -1.00, 773.1, 6.0)">Y</text><text xml:space="preserve" font-family="Times-Bold" font-weight="bold" font-size="200.0" fill="#FEFFFF" transform="matrix(1.00, 0.00, -0.00, -1.00, 917.6, 6.0)">O</text><text xml:space="preserve" font-family="Times-Bold" font-weight="bold" font-size="200.0" fill="#FEFFFF" transform="matrix(1.00, 0.00, -0.00, -1.00, 1073.1, 6.0)">U</text></g></svg>