<?xml version="1.0" encoding="UTF-8" standalone="no"?><svg xmlns="http://www.w3.org/2000/svg" xmlns:xlink="http://www.w3.org/1999/xlink" clip-rule="evenodd" stroke-miterlimit="4.00" viewBox="0 0 286 286"><desc>SVG generated by Keynote</desc><defs><linearGradient id="gradSh1.6" x1="0.0" y1="0.0" x2="100.0" y2="0.0" gradientUnits="userSpaceOnUse" gradientTransform="matrix(-2.99, -2.09, -2.09, 2.99, 292.4, 249.6)"><stop offset="0.00000" stop-color="#FACA25"></stop><stop offset="0.00147" stop-color="#FAC925"></stop><stop offset="0.74194" stop-color="#F17E1F"></stop><stop offset="0.74707" stop-color="#F17D1F"></stop><stop offset="1.00000" stop-color="#EE641D"></stop></linearGradient></defs><g transform="matrix(1.00, 0.00, -0.00, -1.00, 0.0, 286.0)"><g><clipPath id="clip-36"><path d="M 0.5 0.7 L 285.5 0.7 L 285.5 285.3 L 0.5 285.3 Z M 0.5 0.7 "></path></clipPath><g clip-path="url(#clip-36)"><image xlink:href="../../B18A4526-1793-4292-A0CF-6838D25D6129/assets/000FB67F908A2832148C7F408F64FBB0.png" width="283.00" height="283.00" transform="matrix(1.00, 0.00, -0.00, -1.00, 1.5, 284.3)" opacity="0.50"></image></g></g><g><clipPath id="clip-37"><path d="M 234.9 236.8 C 285.7 186.1 285.7 103.9 234.9 53.2 C 184.2 2.5 101.8 2.5 51.1 53.2 C 0.3 103.9 0.3 186.1 51.1 236.8 C 101.8 287.5 184.2 287.5 234.9 236.8 Z M 234.9 236.8 "></path></clipPath><g clip-path="url(#clip-37)"><g><clipPath id="clip-38"><path d="M 0.5 0.7 L 285.5 0.7 L 285.5 285.3 L 0.5 285.3 Z M 0.5 0.7 "></path></clipPath><g clip-path="url(#clip-38)"><path d="M 0.5 0.7 L 285.5 0.7 L 285.5 285.3 L 0.5 285.3 Z M 0.5 0.7 " fill="url(#gradSh1.6)"></path></g></g></g></g><g><clipPath id="clip-39"><path d="M 0.5 0.7 L 285.5 0.7 L 285.5 285.3 L 0.5 285.3 Z M 0.5 0.7 "></path></clipPath><g clip-path="url(#clip-39)"><path d="M 221.9 38.0 C 272.7 88.7 272.7 170.9 221.9 221.6 C 171.2 272.3 88.8 272.3 38.1 221.6 C -12.7 170.9 -12.7 88.7 38.1 38.0 C 88.8 -12.7 171.2 -12.7 221.9 38.0 Z M 221.9 38.0 " fill="none" stroke="#FEFFFF" stroke-width="15.00" transform="matrix(1.00, 0.00, 0.00, -1.00, 13.0, 274.8)"></path></g></g><g><clipPath id="clip-40"><path d="M 56.9 65.8 L 229.1 65.8 L 229.1 237.9 L 56.9 237.9 Z M 56.9 65.8 "></path></clipPath><g clip-path="url(#clip-40)"><image xlink:href="BE9248E540FA056100980559582A8FA2.png" width="173.00" height="173.00" transform="matrix(0.99, 0.00, -0.00, -0.99, 57.0, 238.0)"></image></g></g></g></svg>