<?xml version="1.0" encoding="UTF-8" standalone="no"?><svg xmlns="http://www.w3.org/2000/svg" xmlns:xlink="http://www.w3.org/1999/xlink" clip-rule="evenodd" stroke-miterlimit="4.00" viewBox="0 0 363 362"><desc>SVG generated by Keynote</desc><defs><linearGradient id="gradSh1.20" x1="0.0" y1="0.0" x2="100.0" y2="0.0" gradientUnits="userSpaceOnUse" gradientTransform="matrix(-3.85, -2.70, -2.70, 3.85, 374.1, 318.3)"><stop offset="0.00000" stop-color="#09EEFE"></stop><stop offset="0.01100" stop-color="#0AEEFE"></stop><stop offset="1.00000" stop-color="#54A8F6"></stop></linearGradient></defs><g transform="matrix(1.00, 0.00, -0.00, -1.00, 0.0, 362.0)"><g><clipPath id="clip-106"><path d="M 0.8 1.0 L 361.9 1.0 L 361.9 361.6 L 0.8 361.6 Z M 0.8 1.0 "></path></clipPath><g clip-path="url(#clip-106)"><image xlink:href="../../E2C6770C-E787-46AF-8E8D-DA278D0E26F1/assets/DD39E4485B776A6206C41ED42F4024A3.png" width="359.00" height="359.00" transform="matrix(1.00, 0.00, -0.00, -1.00, 1.8, 360.6)" opacity="0.50"></image></g></g><g><clipPath id="clip-107"><path d="M 300.2 301.9 C 365.8 236.4 365.8 130.2 300.2 64.6 C 234.5 -0.9 128.1 -0.9 62.5 64.6 C -3.1 130.2 -3.1 236.4 62.5 301.9 C 128.1 367.5 234.5 367.5 300.2 301.9 Z M 300.2 301.9 "></path></clipPath><g clip-path="url(#clip-107)"><g><clipPath id="clip-108"><path d="M 0.8 1.0 L 361.9 1.0 L 361.9 361.6 L 0.8 361.6 Z M 0.8 1.0 "></path></clipPath><g clip-path="url(#clip-108)"><path d="M 0.8 1.0 L 361.9 1.0 L 361.9 361.6 L 0.8 361.6 Z M 0.8 1.0 " fill="url(#gradSh1.20)"></path></g></g></g></g><g><clipPath id="clip-109"><path d="M 0.8 1.0 L 361.9 1.0 L 361.9 361.6 L 0.8 361.6 Z M 0.8 1.0 "></path></clipPath><g clip-path="url(#clip-109)"><path d="M 286.9 49.1 C 352.5 114.7 352.5 220.9 286.9 286.5 C 221.3 352.0 114.8 352.0 49.2 286.5 C -16.4 220.9 -16.4 114.7 49.2 49.1 C 114.8 -16.4 221.3 -16.4 286.9 49.1 Z M 286.9 49.1 " fill="none" stroke="#FEFFFF" stroke-width="15.00" transform="matrix(1.00, 0.00, 0.00, -1.00, 13.3, 351.1)"></path></g></g><g><clipPath id="clip-110"><path d="M 52.1 54.0 L 310.6 54.0 L 310.6 312.6 L 52.1 312.6 Z M 52.1 54.0 "></path></clipPath><g clip-path="url(#clip-110)"><image xlink:href="../../B18A4526-1793-4292-A0CF-6838D25D6129/assets/41DFFE008C7ECD11766BEA17BEFC0984.png" width="200.00" height="200.00" transform="matrix(-1.29, 0.00, 0.00, -1.29, 311.0, 313.0)"></image></g></g><g><clipPath id="clip-111"><path d="M 133.2 116.6 L 210.9 116.6 L 210.9 184.3 L 133.2 184.3 Z M 133.2 116.6 "></path></clipPath><g clip-path="url(#clip-111)"><path d="M 134.2 183.3 L 209.9 183.3 L 209.9 117.6 L 134.2 117.6 Z M 134.2 183.3 " fill="#36C4F9"></path></g></g><g><clipPath id="clip-112"><path d="M 117.3 106.7 L 245.3 106.7 L 245.3 183.3 L 117.3 183.3 Z M 117.3 106.7 "></path></clipPath><g clip-path="url(#clip-112)"><text xml:space="preserve" font-family="Helvetica-Bold" font-weight="bold" font-size="40.0" fill="#FEFFFF" transform="matrix(1.00, 0.00, -0.00, -1.00, 141.0, 130.0)">N</text><text xml:space="preserve" font-family="Helvetica-Bold" font-weight="bold" font-size="40.0" fill="#FEFFFF" transform="matrix(1.00, 0.00, -0.00, -1.00, 169.9, 130.0)">O</text><text xml:space="preserve" font-family="Helvetica-Bold" font-weight="bold" font-size="30.0" fill="#FEFFFF" transform="matrix(1.00, 0.00, -0.00, -1.00, 201.0, 130.0)">X</text></g></g></g></svg>